<svg width="30" height="30" viewBox="0 0 30 30" fill="none" xmlns="http://www.w3.org/2000/svg">
<path d="M26.7824 13.869L5.53245 3.86899C5.31849 3.76776 5.08017 3.72942 4.84526 3.75845C4.61035 3.78747 4.38852 3.88267 4.20564 4.03293C4.02275 4.18319 3.88634 4.38234 3.8123 4.60716C3.73826 4.83198 3.72964 5.07321 3.78745 5.30274L6.2112 15.0002L3.78745 24.6977C3.7291 24.9274 3.73734 25.1688 3.81121 25.3939C3.88508 25.619 4.02152 25.8185 4.20457 25.9689C4.38762 26.1192 4.60971 26.2144 4.84486 26.2432C5.08002 26.272 5.31851 26.2333 5.53245 26.1315L26.7824 16.1315C26.9972 16.0305 27.1788 15.8706 27.306 15.6702C27.4331 15.4699 27.5007 15.2375 27.5007 15.0002C27.5007 14.763 27.4331 14.5306 27.306 14.3302C27.1788 14.1299 26.9972 13.9699 26.7824 13.869ZM6.8512 22.7465L7.89995 18.5502L14.9999 15.0002L7.89995 11.4502L6.8512 7.25399L23.3137 15.0002L6.8512 22.7465Z" fill="white"/>
</svg>
