<svg width="20" height="20" viewBox="0 0 20 20" fill="none" xmlns="http://www.w3.org/2000/svg">
<path d="M3.91892 0.947266C2.24779 0.947266 0.893066 1.96331 0.893066 3.21666V16.833C0.893066 18.0864 2.24779 19.1024 3.91892 19.1024H16.0223C17.6935 19.1024 19.0482 18.0864 19.0482 16.833V3.21666C19.0482 1.96331 17.6935 0.947266 16.0223 0.947266H3.91892ZM3.91892 2.08196H16.0223C16.8579 2.08196 17.5353 2.58998 17.5353 3.21666V16.833C17.5353 17.4597 16.8579 17.9677 16.0223 17.9677H3.91892C3.08336 17.9677 2.40599 17.4597 2.40599 16.833V3.21666C2.40599 2.58998 3.08336 2.08196 3.91892 2.08196Z" fill="#73AB48"/>
</svg>
