<svg width="29" height="28" viewBox="0 0 29 28" fill="none" xmlns="http://www.w3.org/2000/svg">
<path d="M0.970703 7.20878C0.970703 5.32875 2.49477 3.80469 4.37479 3.80469H24.7993C26.6793 3.80469 28.2034 5.32875 28.2034 7.20878V20.8251C28.2034 22.7052 26.6793 24.2292 24.7993 24.2292H4.37479C2.49477 24.2292 0.970703 22.7052 0.970703 20.8251V7.20878ZM4.37479 5.50673C3.43478 5.50673 2.67275 6.26876 2.67275 7.20878V7.57796L14.5871 14.7265L26.5014 7.57796V7.20878C26.5014 6.26876 25.7393 5.50673 24.7993 5.50673H4.37479ZM26.5014 9.56286L18.488 14.3709L26.5014 19.3022V9.56286ZM26.4439 21.2653L16.8437 15.3575L14.5871 16.7114L12.3304 15.3575L2.73022 21.2653C2.92421 21.992 3.587 22.5272 4.37479 22.5272H24.7993C25.5871 22.5272 26.2499 21.992 26.4439 21.2653ZM2.67275 19.3022L10.6861 14.3709L2.67275 9.56286V19.3022Z" fill="#73AB48" fill-opacity="0.2"/>
</svg>
