<svg width="28" height="28" viewBox="0 0 28 28" fill="none" xmlns="http://www.w3.org/2000/svg">
<path d="M23.1127 19.7005C26.0102 17.1192 27.6079 14.19 27.6079 14.19C27.6079 14.19 22.5018 4.82876 13.9916 4.82876C12.2634 4.82876 10.6755 5.21482 9.24233 5.83014L10.5544 7.14219C11.6255 6.75748 12.7736 6.53081 13.9916 6.53081C17.5989 6.53081 20.5938 8.5191 22.7876 10.7129C23.8697 11.7951 24.7108 12.8827 25.2808 13.7005C25.4046 13.8781 25.5151 14.0423 25.612 14.19C25.5151 14.3377 25.4046 14.5019 25.2808 14.6795C24.7108 15.4973 23.8697 16.5849 22.7876 17.6671C22.507 17.9476 22.2134 18.2248 21.9071 18.4949L23.1127 19.7005Z" fill="#73AB48" fill-opacity="0.2"/>
<path d="M19.604 16.1919C19.8272 15.5662 19.9487 14.8923 19.9487 14.19C19.9487 10.9 17.2816 8.23285 13.9916 8.23285C13.2893 8.23285 12.6154 8.35438 11.9897 8.57755L13.3894 9.97718C13.5861 9.94931 13.7872 9.93489 13.9916 9.93489C16.3416 9.93489 18.2467 11.84 18.2467 14.19C18.2467 14.3944 18.2323 14.5955 18.2044 14.7922L19.604 16.1919Z" fill="#73AB48" fill-opacity="0.2"/>
<path d="M14.5939 18.4028L15.9935 19.8024C15.3678 20.0256 14.6939 20.1472 13.9916 20.1472C10.7015 20.1472 8.03444 17.48 8.03444 14.19C8.03444 13.4877 8.15597 12.8138 8.37916 12.1881L9.77878 13.5877C9.7509 13.7845 9.73649 13.9856 9.73649 14.19C9.73649 16.54 11.6416 18.4451 13.9916 18.4451C14.196 18.4451 14.3971 18.4307 14.5939 18.4028Z" fill="#73AB48" fill-opacity="0.2"/>
<path d="M6.07614 9.8851C5.76979 10.1552 5.47615 10.4324 5.19561 10.7129C4.11346 11.7951 3.27239 12.8827 2.7024 13.7005C2.57861 13.8781 2.46812 14.0423 2.37123 14.19C2.46812 14.3377 2.57861 14.5019 2.7024 14.6795C3.27239 15.4973 4.11346 16.5849 5.19561 17.6671C7.38942 19.8609 10.3843 21.8492 13.9916 21.8492C15.2096 21.8492 16.3577 21.6225 17.4288 21.2378L18.7409 22.5499C17.3077 23.1652 15.7198 23.5512 13.9916 23.5512C5.48138 23.5512 0.375244 14.19 0.375244 14.19C0.375244 14.19 1.97298 11.2608 4.87054 8.6795L6.07614 9.8851Z" fill="#73AB48" fill-opacity="0.2"/>
<path d="M23.6021 25.004L3.17757 4.5795L4.3811 3.37598L24.8056 23.8005L23.6021 25.004Z" fill="#73AB48" fill-opacity="0.2"/>
</svg>
