<svg width="24" height="26" viewBox="0 0 24 26" fill="none" xmlns="http://www.w3.org/2000/svg">
<path d="M0.280117 5.4939C-0.436013 12.2481 1.76021 17.2859 4.40351 20.661C5.76996 22.4058 7.25508 23.7062 8.51859 24.5758C9.14989 25.0103 9.73499 25.3436 10.2318 25.5719C10.6909 25.7828 11.1821 25.9555 11.5871 25.9555C11.992 25.9555 12.4832 25.7828 12.9423 25.5719C13.4392 25.3436 14.0243 25.0103 14.6556 24.5758C15.4485 24.03 16.3288 23.3145 17.2123 22.426L16.0087 21.2225C15.2012 22.0351 14.4013 22.6846 13.6905 23.1738C13.1248 23.5632 12.6247 23.8447 12.2317 24.0253C12.0349 24.1157 11.874 24.1766 11.7518 24.2136C11.6511 24.244 11.5994 24.2512 11.5871 24.2529C11.5748 24.2512 11.523 24.244 11.4223 24.2136C11.3001 24.1766 11.1392 24.1157 10.9425 24.0253C10.5495 23.8447 10.0493 23.5632 9.48359 23.1738C8.35303 22.3956 6.99688 21.2119 5.7435 19.6116C3.52245 16.7756 1.62137 12.631 1.86665 7.08043L0.280117 5.4939Z" fill="#73AB48" fill-opacity="0.2"/>
<path d="M19.0921 17.0847C20.7458 14.0464 21.8062 10.0223 21.1138 4.95073C21.0752 4.66795 20.8696 4.42049 20.5768 4.32724C19.5126 3.98832 17.7146 3.43299 15.9392 2.96325C14.1239 2.48298 12.4549 2.12685 11.5871 2.12685C10.7192 2.12685 9.05027 2.48298 7.23498 2.96325C6.63716 3.12142 6.03678 3.28929 5.46272 3.45534L4.09187 2.08449C4.92845 1.83438 5.86584 1.56488 6.79965 1.31782C8.57466 0.848204 10.4599 0.424805 11.5871 0.424805C12.7143 0.424805 14.5995 0.848204 16.3745 1.31782C18.1893 1.79798 20.0178 2.36291 21.0933 2.70546C21.9909 2.99133 22.6698 3.76548 22.8002 4.72049C23.5798 10.4307 22.2914 14.9586 20.3421 18.3347L19.0921 17.0847Z" fill="#73AB48" fill-opacity="0.2"/>
</svg>
