<svg width="26" height="25" viewBox="0 0 26 25" fill="none" xmlns="http://www.w3.org/2000/svg">
<g clip-path="url(#clip0_82_849)">
<path d="M13.4604 14.0361C17.3423 14.0361 20.4917 10.9655 20.4917 7.18066C20.4917 3.39587 17.3423 0.325195 13.4604 0.325195C9.57861 0.325195 6.4292 3.39587 6.4292 7.18066C6.4292 10.9655 9.57861 14.0361 13.4604 14.0361ZM19.7104 15.5596H17.02C15.936 16.0452 14.73 16.3213 13.4604 16.3213C12.1909 16.3213 10.9897 16.0452 9.90088 15.5596H7.21045C3.7583 15.5596 0.960449 18.2875 0.960449 21.6533V22.415C0.960449 23.6766 2.01025 24.7002 3.3042 24.7002H23.6167C24.9106 24.7002 25.9604 23.6766 25.9604 22.415V21.6533C25.9604 18.2875 23.1626 15.5596 19.7104 15.5596Z" fill="#0C360E"/>
</g>
<defs>
<clipPath id="clip0_82_849">
<rect width="25" height="24.375" fill="white" transform="translate(0.960449 0.325195)"/>
</clipPath>
</defs>
</svg>
